<?xml version="1.0" encoding="iso-8859-1"?>
<!-- Generator: Adobe Illustrator 21.1.0, SVG Export Plug-In . SVG Version: 6.00 Build 0)  -->
<svg version="1.1" id="Layer_1" xmlns="http://www.w3.org/2000/svg" xmlns:xlink="http://www.w3.org/1999/xlink" x="0px" y="0px"
	 viewBox="0 0 100.353 100.352" style="enable-background:new 0 0 100.353 100.352;" xml:space="preserve">
<path d="M73.322,14.871c-7.409-5.084-16.747-6.564-25.829-4.152c-1.812-4.255-6.034-7.245-10.943-7.245
	c-6.553,0-11.884,5.333-11.884,11.889c0,3.239,1.306,6.176,3.414,8.322c-0.512,0.654-1.012,1.318-1.479,1.999
	c-9.184,13.392-8.62,30.358,1.226,41.784c-3.888,3.999-15.136,16.139-13.926,21.546c0.757,3.393,7.208,7.968,10.964,7.968
	c0.203,0,0.398-0.014,0.584-0.041c5.413-0.804,12.642-15.46,15.093-20.765C54.858,81.2,70.927,75.648,80.05,62.352
	C91.075,46.281,88.056,24.981,73.322,14.871z M36.55,6.473c4.901,0,8.889,3.987,8.889,8.889c0,4.899-3.987,8.884-8.889,8.884
	c-4.899,0-8.884-3.985-8.884-8.884C27.665,10.461,31.651,6.473,36.55,6.473z M40.315,72.887l-1.34-0.538l-0.588,1.318
	C32.351,87.199,26.93,93.688,25.009,93.973c-2.065,0.312-7.725-3.574-8.18-5.614c-0.424-1.894,3.624-9.232,13.948-19.614l1.2-1.203
	l-0.998-1.058c-5.103-5.41-7.735-12.37-7.881-19.583L61.459,73.22C54.684,75.634,47.232,75.66,40.315,72.887z M77.576,60.655
	c-3.406,4.964-7.865,8.746-12.834,11.18L23.225,43.351c0.511-5.485,2.437-10.994,5.85-15.971c0.431-0.628,0.891-1.241,1.364-1.844
	c1.788,1.078,3.875,1.711,6.111,1.711c6.556,0,11.889-5.331,11.889-11.884c0-0.597-0.059-1.18-0.144-1.753
	c8.224-2.174,16.657-0.845,23.33,3.736C84.995,26.519,87.665,45.948,77.576,60.655z"/>
</svg>
