<?xml version="1.0" encoding="iso-8859-1"?>
<!-- Generator: Adobe Illustrator 21.1.0, SVG Export Plug-In . SVG Version: 6.00 Build 0)  -->
<svg version="1.1" id="Layer_1" xmlns="http://www.w3.org/2000/svg" xmlns:xlink="http://www.w3.org/1999/xlink" x="0px" y="0px"
	 viewBox="0 0 100.353 100.352" style="enable-background:new 0 0 100.353 100.352;" xml:space="preserve">
<g>
	<path d="M38.778,41.48c6.725,0,12.462-4.071,14.709-9.77c2.249,5.699,7.988,9.77,14.717,9.77c8.672,0,15.727-6.763,15.727-15.076
		s-7.055-15.076-15.727-15.076c-6.728,0-12.468,4.071-14.717,9.77c-2.248-5.699-7.984-9.77-14.709-9.77
		c-8.674,0-15.731,6.763-15.731,15.076S30.104,41.48,38.778,41.48z M68.204,14.328c7.018,0,12.727,5.417,12.727,12.076
		S75.222,38.48,68.204,38.48c-7.026,0-12.743-5.417-12.743-12.076S61.178,14.328,68.204,14.328z M38.778,14.328
		c7.022,0,12.735,5.417,12.735,12.076S45.8,38.48,38.778,38.48c-7.02,0-12.731-5.417-12.731-12.076S31.758,14.328,38.778,14.328z"/>
	<path d="M90.871,55.143h-7.348v-7.594c0-0.829-0.671-1.5-1.5-1.5H26.12c-0.829,0-1.5,0.671-1.5,1.5v11.97L6.423,51.941
		C5.96,51.749,5.432,51.8,5.014,52.078c-0.417,0.278-0.668,0.747-0.668,1.248v23.442c0,0.501,0.25,0.97,0.668,1.248
		c0.25,0.167,0.54,0.252,0.832,0.252c0.195,0,0.391-0.038,0.577-0.115l18.197-7.574v11.967c0,0.829,0.671,1.5,1.5,1.5h55.903
		c0.829,0,1.5-0.671,1.5-1.5v-7.603h7.348c0.829,0,1.5-0.671,1.5-1.5V56.644C92.371,55.815,91.699,55.143,90.871,55.143z
		 M24.587,67.342L7.346,74.519V55.576l17.233,7.177c0.013,0.005,0.027,0.007,0.04,0.012v4.568
		C24.609,67.337,24.598,67.338,24.587,67.342z M80.523,81.046H27.62V49.049h52.903v7.594v16.799V81.046z M89.371,71.943h-5.848
		V58.144h5.848V71.943z"/>
	<path d="M38.778,32.722c3.615,0,6.556-2.834,6.556-6.318c0-3.485-2.941-6.32-6.556-6.32c-3.61,0-6.548,2.835-6.548,6.32
		C32.23,29.888,35.168,32.722,38.778,32.722z M38.778,23.084c1.961,0,3.556,1.489,3.556,3.32c0,1.83-1.595,3.318-3.556,3.318
		c-1.956,0-3.548-1.489-3.548-3.318C35.23,24.573,36.822,23.084,38.778,23.084z"/>
	<path d="M68.192,32.722c3.617,0,6.56-2.834,6.56-6.318c0-3.485-2.942-6.32-6.56-6.32c-3.613,0-6.552,2.835-6.552,6.32
		C61.641,29.888,64.579,32.722,68.192,32.722z M68.192,23.084c1.963,0,3.56,1.489,3.56,3.32c0,1.83-1.597,3.318-3.56,3.318
		c-1.958,0-3.552-1.489-3.552-3.318C64.641,24.573,66.234,23.084,68.192,23.084z"/>
</g>
</svg>
