<?xml version="1.0" encoding="iso-8859-1"?>
<!-- Generator: Adobe Illustrator 21.1.0, SVG Export Plug-In . SVG Version: 6.00 Build 0)  -->
<svg version="1.1" id="Layer_1" xmlns="http://www.w3.org/2000/svg" xmlns:xlink="http://www.w3.org/1999/xlink" x="0px" y="0px"
	 viewBox="0 0 100.353 100.353" style="enable-background:new 0 0 100.353 100.353;" xml:space="preserve">
<g>
	<path d="M83.271,86.072c0.047-0.145,0.079-0.298,0.079-0.459V46.68c0-0.006-0.002-0.012-0.002-0.019
		c-0.001-0.061-0.01-0.122-0.018-0.183c-0.005-0.038-0.006-0.076-0.014-0.113c-0.01-0.049-0.029-0.095-0.044-0.143
		c-0.001-0.002-0.001-0.004-0.002-0.005c-0.007-0.02-0.011-0.04-0.019-0.06c-0.009-0.024-0.015-0.049-0.025-0.072
		c-0.015-0.035-0.038-0.068-0.056-0.103c-0.028-0.053-0.055-0.107-0.089-0.156c-0.004-0.005-0.006-0.011-0.009-0.016l-6.271-8.796
		v-6.155c0.001-0.023,0.007-0.045,0.007-0.068c0-0.388-0.151-0.738-0.393-1.004c0,0,0-0.001-0.001-0.001l-0.002-0.003
		c-0.02-0.022-0.038-0.045-0.06-0.066l-14.02-15.522c0,0-0.001,0-0.001-0.001c-0.274-0.301-0.666-0.494-1.106-0.494
		c-0.001,0-0.002,0-0.003,0c-0.001,0-0.002,0-0.003,0H27.427c-0.829,0-1.5,0.671-1.5,1.5v21.823l-6.278,8.785
		c-0.003,0.005-0.005,0.01-0.009,0.015c-0.037,0.053-0.066,0.111-0.096,0.168c-0.016,0.031-0.036,0.06-0.05,0.092
		c-0.01,0.024-0.017,0.049-0.026,0.074c-0.008,0.021-0.012,0.041-0.019,0.062c-0.001,0.004-0.003,0.008-0.004,0.012
		c-0.014,0.045-0.032,0.089-0.042,0.134c-0.008,0.038-0.009,0.078-0.015,0.118c-0.008,0.059-0.017,0.118-0.018,0.178
		c0,0.007-0.002,0.013-0.002,0.02v38.934c0,0.165,0.033,0.32,0.082,0.468c0.007,0.02,0.011,0.039,0.018,0.058
		c0.065,0.172,0.161,0.327,0.281,0.463c0.007,0.008,0.009,0.018,0.016,0.026c0.006,0.007,0.014,0.012,0.021,0.018
		c0.048,0.05,0.102,0.094,0.157,0.138c0.026,0.02,0.049,0.044,0.076,0.062c0.064,0.044,0.133,0.08,0.203,0.114
		c0.02,0.01,0.038,0.023,0.058,0.032c0.181,0.077,0.38,0.12,0.589,0.12h60.98c0.209,0,0.408-0.043,0.589-0.121
		c0.028-0.012,0.054-0.03,0.081-0.044c0.062-0.031,0.124-0.063,0.181-0.102c0.03-0.021,0.057-0.048,0.086-0.071
		c0.051-0.041,0.101-0.082,0.145-0.129c0.008-0.008,0.017-0.014,0.025-0.022c0.008-0.009,0.01-0.021,0.018-0.03
		c0.117-0.134,0.211-0.288,0.275-0.458C83.259,86.115,83.264,86.094,83.271,86.072z M22.369,50.081l17.513,15.993l-17.513,16.12
		V50.081z M42.105,68.105l8.243,7.528c0.287,0.262,0.649,0.393,1.012,0.393c0.362,0,0.726-0.131,1.012-0.393l8.14-7.434
		l17.465,15.914H24.713L42.105,68.105z M62.736,66.168L80.35,50.081v32.136L62.736,66.168z M62.726,19.106l9.199,10.185h-9.199
		V19.106z M79.857,46.469l-3.056,2.791v-7.078L79.857,46.469z M59.726,16.7v14.091c0,0.829,0.672,1.5,1.5,1.5h12.575V52
		L59.584,64.983c-0.068,0.053-0.147,0.086-0.208,0.152c-0.023,0.025-0.029,0.057-0.05,0.084l-7.966,7.276L28.927,52.007V16.7H59.726
		z M25.927,49.267l-3.064-2.798l3.064-4.287V49.267z"/>
	<path d="M42.957,49.53l-1.193,6.951c-0.152,0.869,0.192,1.736,0.899,2.265c0.411,0.307,0.897,0.463,1.389,0.463
		c0.356,0,0.716-0.082,1.053-0.25l6.406-3.245l6.071,3.195c0.786,0.418,1.724,0.352,2.447-0.171c0.724-0.524,1.08-1.398,0.929-2.281
		l-1.188-6.925l5.03-4.908c0.642-0.623,0.868-1.538,0.592-2.387c-0.275-0.849-0.995-1.454-1.874-1.579l-6.962-1.011l-3.109-6.304
		c-0.396-0.803-1.194-1.301-2.087-1.301c-0.004,0-0.009,0-0.013,0c-0.89,0.005-1.682,0.504-2.069,1.305l-3.114,6.299l-6.952,1.01
		c-0.882,0.125-1.603,0.729-1.878,1.576c-0.277,0.85-0.051,1.765,0.589,2.388L42.957,49.53z M47.376,42.501
		c0.488-0.071,0.91-0.377,1.129-0.82l2.858-5.782l2.852,5.782c0.219,0.443,0.642,0.75,1.13,0.821l6.384,0.927l-4.617,4.505
		c-0.353,0.345-0.514,0.841-0.431,1.327l1.09,6.356l-5.547-2.92c-0.431-0.228-0.944-0.232-1.377-0.011l-5.901,2.989l1.101-6.415
		c0.083-0.486-0.078-0.983-0.431-1.328l-4.618-4.505L47.376,42.501z"/>
</g>
</svg>
