<?xml version="1.0" encoding="iso-8859-1"?>
<!-- Generator: Adobe Illustrator 21.1.0, SVG Export Plug-In . SVG Version: 6.00 Build 0)  -->
<svg version="1.1" id="Layer_1" xmlns="http://www.w3.org/2000/svg" xmlns:xlink="http://www.w3.org/1999/xlink" x="0px" y="0px"
	 viewBox="0 0 100.354 100.352" style="enable-background:new 0 0 100.354 100.352;" xml:space="preserve">
<g>
	<path d="M69.073,81.749L58.471,57.644c13.453-3.835,23.335-16.227,23.335-30.891c0-0.829-0.672-1.5-1.5-1.5H19.051
		c-0.829,0-1.5,0.671-1.5,1.5c0,14.228,9.301,26.319,22.14,30.528L24.625,91.553c-0.333,0.758,0.011,1.644,0.77,1.977
		c0.196,0.087,0.401,0.127,0.603,0.127c0.577,0,1.127-0.334,1.374-0.896l2.185-4.971H62.72c0,0.004-0.001,0.008-0.001,0.012
		c0,3.345,2.724,6.066,6.071,6.066s6.071-2.722,6.071-6.066C74.862,84.552,72.29,81.898,69.073,81.749z M20.589,28.252h58.18
		c-0.783,15.366-13.533,27.625-29.093,27.625C34.119,55.877,21.372,43.618,20.589,28.252z M30.875,84.789l11.739-26.704
		c2.274,0.512,4.635,0.792,7.062,0.792c1.989,0,3.934-0.191,5.824-0.539l10.575,24.045c-1.067,0.536-1.954,1.375-2.547,2.406H30.875
		z M68.791,90.867c-1.693,0-3.071-1.376-3.071-3.066s1.378-3.066,3.071-3.066s3.071,1.376,3.071,3.066S70.484,90.867,68.791,90.867z
		"/>
	<path d="M40.572,21.493c0.829,0,1.5-0.671,1.5-1.5V6.742c0-0.829-0.671-1.5-1.5-1.5s-1.5,0.671-1.5,1.5v13.251
		C39.072,20.822,39.744,21.493,40.572,21.493z"/>
	<path d="M49.676,21.493c0.829,0,1.5-0.671,1.5-1.5V6.742c0-0.829-0.671-1.5-1.5-1.5s-1.5,0.671-1.5,1.5v13.251
		C48.176,20.822,48.847,21.493,49.676,21.493z"/>
	<path d="M58.786,21.493c0.828,0,1.5-0.671,1.5-1.5V6.742c0-0.829-0.672-1.5-1.5-1.5s-1.5,0.671-1.5,1.5v13.251
		C57.286,20.822,57.958,21.493,58.786,21.493z"/>
</g>
</svg>
