<?xml version="1.0" encoding="iso-8859-1"?>
<!-- Generator: Adobe Illustrator 21.1.0, SVG Export Plug-In . SVG Version: 6.00 Build 0)  -->
<svg version="1.1" id="Layer_1" xmlns="http://www.w3.org/2000/svg" xmlns:xlink="http://www.w3.org/1999/xlink" x="0px" y="0px"
	 viewBox="0 0 100.355 100.352" style="enable-background:new 0 0 100.355 100.352;" xml:space="preserve">
<path d="M83.597,23.646c-0.765-4.863-3.377-9.137-7.356-12.035C72.262,8.713,67.396,7.539,62.531,8.3
	c-4.462,0.7-8.414,2.971-11.276,6.411c-0.115,0.105-0.213,0.225-0.289,0.359c-0.155,0.196-0.322,0.38-0.469,0.583
	c-3.684,5.058-4.401,11.379-2.496,16.888L19.382,77.458c-0.426,0.668-0.258,1.552,0.382,2.019l3.402,2.478l-5.658,7.766
	c-0.488,0.669-0.34,1.607,0.329,2.095c0.267,0.194,0.576,0.288,0.882,0.288c0.463,0,0.92-0.214,1.213-0.617l5.658-7.766l3.089,2.25
	c0.266,0.193,0.575,0.287,0.882,0.287c0.426,0,0.848-0.181,1.143-0.527l34.747-40.809c5.667-0.024,11.253-2.646,14.837-7.567
	C83.187,33.377,84.361,28.508,83.597,23.646z M62.996,11.263c0.811-0.127,1.62-0.19,2.426-0.19c3.238,0,6.385,1.019,9.053,2.962
	c3.331,2.427,5.519,6.005,6.158,10.076c0.481,3.054,0.047,6.111-1.224,8.854c-4.487,0.293-11.044-1.007-15.385-4.167
	c-4.584-3.34-8.859-8.722-10.099-12.615C56.286,13.55,59.454,11.82,62.996,11.263z M29.321,82.727l-3.172-2.311
	c-0.001-0.001-0.002-0.002-0.004-0.003s-0.003-0.002-0.004-0.003l-3.471-2.529l26.82-42.093c1.244,2.138,2.931,4.061,5.055,5.608
	c2.236,1.629,4.721,2.666,7.272,3.167L29.321,82.727z M56.31,38.972c-2.426-1.767-4.169-4.12-5.21-6.719
	c-0.027-0.085-0.061-0.167-0.103-0.246c-1.573-4.133-1.345-8.863,0.88-12.915c1.977,4.151,6.002,8.941,10.381,12.132
	c4.282,3.119,10.429,4.63,15.288,4.758C72.458,42.509,63.048,43.88,56.31,38.972z"/>
</svg>
