<?xml version="1.0" encoding="iso-8859-1"?>
<!-- Generator: Adobe Illustrator 21.1.0, SVG Export Plug-In . SVG Version: 6.00 Build 0)  -->
<svg version="1.1" id="Layer_1" xmlns="http://www.w3.org/2000/svg" xmlns:xlink="http://www.w3.org/1999/xlink" x="0px" y="0px"
	 viewBox="0 0 100.353 100.353" style="enable-background:new 0 0 100.353 100.353;" xml:space="preserve">
<g>
	<path d="M81.622,65.993c0.028-0.063,0.047-0.13,0.067-0.197c1.063-3.293,1.643-6.8,1.643-10.441
		c0-17.149-12.74-31.372-29.25-33.719v-5.48c0-0.829-0.672-1.5-1.5-1.5h-1.821V4.416c0-0.829-0.671-1.5-1.5-1.5s-1.5,0.671-1.5,1.5
		v10.24h-1.813c-0.829,0-1.5,0.671-1.5,1.5v5.48C31.856,23.427,21.46,32.123,17.235,43.76c-0.012,0.029-0.019,0.059-0.03,0.089
		C15.91,47.445,15.2,51.318,15.2,55.355c0,3.599,0.565,7.068,1.605,10.327c0.023,0.117,0.064,0.227,0.113,0.333
		C21.403,79.59,34.201,89.418,49.26,89.421c0,0,0.001,0,0.001,0c0,0,0.001,0,0.001,0c0.001,0,0.003,0,0.004,0
		c0.229,0,0.455-0.013,0.682-0.017c0.048,0.005,0.096,0.017,0.144,0.017c0.058,0,0.115-0.019,0.172-0.025
		C64.898,88.971,77.242,79.28,81.622,65.993z M18.2,55.355c0-3.313,0.527-6.504,1.491-9.5h11.13
		c-0.822,2.871-1.318,5.945-1.318,9.204c0,3.138,0.408,6.08,1.094,8.826H19.401C18.625,61.173,18.2,58.313,18.2,55.355z
		 M32.503,55.059c0-3.261,0.561-6.34,1.476-9.204h13.781v18.03H33.719C32.96,61.15,32.503,58.204,32.503,55.059z M64.256,42.855
		H50.761V25.232C53.784,27.759,60.53,34.082,64.256,42.855z M47.761,25.942v16.913H35.09C38.502,34.817,44.46,28.833,47.761,25.942z
		 M47.761,66.885V84.85c-3.419-2.896-9.731-9.129-13.064-17.965H47.761z M50.761,85.53V66.885h13.886
		C61.017,76.488,53.872,83.022,50.761,85.53z M50.761,63.885v-18.03H65.37c0.916,2.865,1.479,5.943,1.479,9.204
		c0,3.144-0.458,6.09-1.22,8.826H50.761z M68.53,45.855h10.31c0.965,2.996,1.491,6.187,1.491,9.5c0,2.958-0.424,5.818-1.2,8.53
		H68.755c0.686-2.746,1.094-5.688,1.094-8.826C69.849,51.799,69.352,48.726,68.53,45.855z M77.697,42.855H67.532
		c-3.157-8.262-8.854-14.523-12.683-18.054C65.096,26.669,73.601,33.575,77.697,42.855z M47.447,21.291v-3.635h3.635v3.635h-0.947
		c-0.005,0-0.011,0-0.016,0h-0.775c-0.026,0-0.051-0.002-0.077-0.002s-0.051,0.002-0.077,0.002H47.447z M44.692,24.628
		c-3.827,3.496-9.662,9.824-12.873,18.227H20.835C25.065,33.272,33.996,26.214,44.692,24.628z M20.428,66.885h11.055
		c3.083,9.059,9.093,15.61,13.071,19.179C33.561,84.384,24.454,76.918,20.428,66.885z M55,85.882
		c3.978-3.608,9.838-10.091,12.869-18.997h10.235C74.204,76.605,65.532,83.907,55,85.882z"/>
	<path d="M15.438,23.835c0.816-0.141,1.365-0.916,1.225-1.732c-0.639-3.718,1.868-7.263,5.588-7.903
		c0.018-0.003,0.033-0.01,0.051-0.014c0.055-0.008,0.11-0.012,0.165-0.021c0.816-0.14,1.365-0.916,1.225-1.732
		c-0.141-0.817-0.916-1.366-1.732-1.225c-3.712,0.64-7.263-1.868-7.902-5.588c-0.114-0.662-0.649-1.138-1.28-1.224
		c-0.276-0.139-0.595-0.197-0.923-0.141c-0.816,0.141-1.365,0.916-1.225,1.732c0.31,1.801-0.101,3.615-1.156,5.108
		c-1.056,1.493-2.629,2.486-4.431,2.794c-0.025,0.004-0.048,0.015-0.072,0.02c-0.048,0.008-0.096,0.009-0.144,0.018
		c-0.816,0.14-1.364,0.916-1.224,1.732c0.141,0.816,0.915,1.368,1.733,1.224c1.8-0.31,3.615,0.101,5.108,1.156
		c1.493,1.055,2.485,2.628,2.794,4.429c0.114,0.663,0.651,1.128,1.284,1.212c0.204,0.103,0.424,0.177,0.662,0.177
		C15.267,23.857,15.352,23.849,15.438,23.835z M12.174,15.588c-0.581-0.411-1.199-0.748-1.838-1.02
		c0.587-0.512,1.125-1.089,1.586-1.742c0.497-0.704,0.885-1.461,1.179-2.247c1.026,1.287,2.359,2.297,3.868,2.938
		c-1.239,1.077-2.193,2.448-2.771,3.985C13.624,16.782,12.947,16.135,12.174,15.588z"/>
	<path d="M95.723,90.822c-3.203-1.062-4.944-4.529-3.883-7.729c0.209-0.632-0.028-1.298-0.535-1.673
		c-0.178-0.244-0.428-0.438-0.737-0.54c-0.79-0.262-1.636,0.166-1.896,0.952c-0.514,1.551-1.6,2.809-3.061,3.542
		c-1.46,0.733-3.117,0.854-4.668,0.339c-0.022-0.007-0.045-0.009-0.068-0.015c-0.042-0.015-0.082-0.034-0.125-0.049
		c-0.785-0.26-1.635,0.166-1.896,0.952s0.165,1.635,0.952,1.896c3.203,1.062,4.945,4.53,3.884,7.731
		c-0.209,0.63,0.028,1.295,0.534,1.671c0.178,0.244,0.428,0.438,0.737,0.54c0.157,0.052,0.315,0.076,0.472,0.076
		c0.63,0,1.216-0.398,1.424-1.028c0.514-1.551,1.6-2.809,3.06-3.542c1.461-0.731,3.12-0.854,4.67-0.341
		c0.016,0.005,0.033,0.006,0.049,0.011c0.048,0.017,0.092,0.039,0.14,0.054c0.157,0.052,0.316,0.076,0.473,0.076
		c0.629,0,1.215-0.398,1.424-1.027C96.935,91.931,96.509,91.082,95.723,90.822z M88.572,91.264
		c-0.645,0.324-1.234,0.723-1.773,1.175c-0.284-1.344-0.86-2.612-1.695-3.698c0.634-0.162,1.256-0.386,1.855-0.687
		c0.645-0.324,1.234-0.724,1.773-1.176c0.284,1.345,0.859,2.612,1.694,3.699C89.793,90.739,89.171,90.964,88.572,91.264z"/>
</g>
</svg>
